solid OpenSCAD_Model
  facet normal 0.980784 0.195097 0
    outer loop
      vertex 3.71792 0.489472 1
      vertex 3.62222 0.970571 0
      vertex 3.62222 0.970571 1
    endloop
  endfacet
  facet normal 0.980784 0.195097 0
    outer loop
      vertex 3.62222 0.970571 0
      vertex 3.71792 0.489472 1
      vertex 3.71792 0.489472 0
    endloop
  endfacet
  facet normal 0.997859 0.0653997 0
    outer loop
      vertex 3.75 0 1
      vertex 3.71792 0.489472 0
      vertex 3.71792 0.489472 1
    endloop
  endfacet
  facet normal 0.997859 0.0653997 0
    outer loop
      vertex 3.71792 0.489472 0
      vertex 3.75 0 1
      vertex 3.75 0 0
    endloop
  endfacet
  facet normal 0.946932 0.321434 0
    outer loop
      vertex 3.62222 0.970571 1
      vertex 3.46455 1.43506 0
      vertex 3.46455 1.43506 1
    endloop
  endfacet
  facet normal 0.946932 0.321434 0
    outer loop
      vertex 3.46455 1.43506 0
      vertex 3.62222 0.970571 1
      vertex 3.62222 0.970571 0
    endloop
  endfacet
  facet normal -0.997859 0.0653997 0
    outer loop
      vertex -3.75 0 0
      vertex -3.71792 0.489472 1
      vertex -3.71792 0.489472 0
    endloop
  endfacet
  facet normal -0.997859 0.0653997 0
    outer loop
      vertex -3.71792 0.489472 1
      vertex -3.75 0 0
      vertex -3.75 0 1
    endloop
  endfacet
  facet normal 0.321434 0.946932 -0
    outer loop
      vertex 1.43506 3.46455 0
      vertex 0.970571 3.62222 1
      vertex 1.43506 3.46455 1
    endloop
  endfacet
  facet normal 0.321434 0.946932 0
    outer loop
      vertex 0.970571 3.62222 1
      vertex 1.43506 3.46455 0
      vertex 0.970571 3.62222 0
    endloop
  endfacet
  facet normal 0.195097 0.980784 -0
    outer loop
      vertex 0.970571 3.62222 0
      vertex 0.489472 3.71792 1
      vertex 0.970571 3.62222 1
    endloop
  endfacet
  facet normal 0.195097 0.980784 0
    outer loop
      vertex 0.489472 3.71792 1
      vertex 0.970571 3.62222 0
      vertex 0.489472 3.71792 0
    endloop
  endfacet
  facet normal 0.896868 0.442298 0
    outer loop
      vertex 3.46455 1.43506 1
      vertex 3.24759 1.875 0
      vertex 3.24759 1.875 1
    endloop
  endfacet
  facet normal 0.896868 0.442298 0
    outer loop
      vertex 3.24759 1.875 0
      vertex 3.46455 1.43506 1
      vertex 3.46455 1.43506 0
    endloop
  endfacet
  facet normal 0.195097 -0.980784 0
    outer loop
      vertex 0.489472 -3.71792 0
      vertex 0.970571 -3.62222 1
      vertex 0.489472 -3.71792 1
    endloop
  endfacet
  facet normal 0.195097 -0.980784 0
    outer loop
      vertex 0.970571 -3.62222 1
      vertex 0.489472 -3.71792 0
      vertex 0.970571 -3.62222 0
    endloop
  endfacet
  facet normal 0.0653997 -0.997859 0
    outer loop
      vertex 0 -3.75 0
      vertex 0.489472 -3.71792 1
      vertex 0 -3.75 1
    endloop
  endfacet
  facet normal 0.0653997 -0.997859 0
    outer loop
      vertex 0.489472 -3.71792 1
      vertex 0 -3.75 0
      vertex 0.489472 -3.71792 0
    endloop
  endfacet
  facet normal 0.659346 0.75184 -0
    outer loop
      vertex 2.65165 2.65165 0
      vertex 2.28286 2.97507 1
      vertex 2.65165 2.65165 1
    endloop
  endfacet
  facet normal 0.659346 0.75184 0
    outer loop
      vertex 2.28286 2.97507 1
      vertex 2.65165 2.65165 0
      vertex 2.28286 2.97507 0
    endloop
  endfacet
  facet normal 0.896868 -0.442298 0
    outer loop
      vertex 3.24759 -1.875 1
      vertex 3.46455 -1.43506 0
      vertex 3.46455 -1.43506 1
    endloop
  endfacet
  facet normal 0.896868 -0.442298 0
    outer loop
      vertex 3.46455 -1.43506 0
      vertex 3.24759 -1.875 1
      vertex 3.24759 -1.875 0
    endloop
  endfacet
  facet normal -0.195097 -0.980784 0
    outer loop
      vertex -0.970571 -3.62222 0
      vertex -0.489472 -3.71792 1
      vertex -0.970571 -3.62222 1
    endloop
  endfacet
  facet normal -0.195097 -0.980784 -0
    outer loop
      vertex -0.489472 -3.71792 1
      vertex -0.970571 -3.62222 0
      vertex -0.489472 -3.71792 0
    endloop
  endfacet
  facet normal -0.896868 0.442298 0
    outer loop
      vertex -3.46455 1.43506 0
      vertex -3.24759 1.875 1
      vertex -3.24759 1.875 0
    endloop
  endfacet
  facet normal -0.896868 0.442298 0
    outer loop
      vertex -3.24759 1.875 1
      vertex -3.46455 1.43506 0
      vertex -3.46455 1.43506 1
    endloop
  endfacet
  facet normal 0.659346 -0.75184 0
    outer loop
      vertex 2.28286 -2.97507 0
      vertex 2.65165 -2.65165 1
      vertex 2.28286 -2.97507 1
    endloop
  endfacet
  facet normal 0.659346 -0.75184 0
    outer loop
      vertex 2.65165 -2.65165 1
      vertex 2.28286 -2.97507 0
      vertex 2.65165 -2.65165 0
    endloop
  endfacet
  facet normal 0.75184 -0.659346 0
    outer loop
      vertex 2.65165 -2.65165 1
      vertex 2.97507 -2.28286 0
      vertex 2.97507 -2.28286 1
    endloop
  endfacet
  facet normal 0.75184 -0.659346 0
    outer loop
      vertex 2.97507 -2.28286 0
      vertex 2.65165 -2.65165 1
      vertex 2.65165 -2.65165 0
    endloop
  endfacet
  facet normal 0.321434 -0.946932 0
    outer loop
      vertex 0.970571 -3.62222 0
      vertex 1.43506 -3.46455 1
      vertex 0.970571 -3.62222 1
    endloop
  endfacet
  facet normal 0.321434 -0.946932 0
    outer loop
      vertex 1.43506 -3.46455 1
      vertex 0.970571 -3.62222 0
      vertex 1.43506 -3.46455 0
    endloop
  endfacet
  facet normal -0.997859 -0.0653997 0
    outer loop
      vertex -3.71792 -0.489472 0
      vertex -3.75 0 1
      vertex -3.75 0 0
    endloop
  endfacet
  facet normal -0.997859 -0.0653997 0
    outer loop
      vertex -3.75 0 1
      vertex -3.71792 -0.489472 0
      vertex -3.71792 -0.489472 1
    endloop
  endfacet
  facet normal -0.659346 0.75184 0
    outer loop
      vertex -2.28286 2.97507 0
      vertex -2.65165 2.65165 1
      vertex -2.28286 2.97507 1
    endloop
  endfacet
  facet normal -0.659346 0.75184 0
    outer loop
      vertex -2.65165 2.65165 1
      vertex -2.28286 2.97507 0
      vertex -2.65165 2.65165 0
    endloop
  endfacet
  facet normal -0.321434 0.946932 0
    outer loop
      vertex -0.970571 3.62222 0
      vertex -1.43506 3.46455 1
      vertex -0.970571 3.62222 1
    endloop
  endfacet
  facet normal -0.321434 0.946932 0
    outer loop
      vertex -1.43506 3.46455 1
      vertex -0.970571 3.62222 0
      vertex -1.43506 3.46455 0
    endloop
  endfacet
  facet normal -0.831473 -0.555566 0
    outer loop
      vertex -2.97507 -2.28286 0
      vertex -3.24759 -1.875 1
      vertex -3.24759 -1.875 0
    endloop
  endfacet
  facet normal -0.831473 -0.555566 0
    outer loop
      vertex -3.24759 -1.875 1
      vertex -2.97507 -2.28286 0
      vertex -2.97507 -2.28286 1
    endloop
  endfacet
  facet normal 0.75184 0.659346 0
    outer loop
      vertex 2.97507 2.28286 1
      vertex 2.65165 2.65165 0
      vertex 2.65165 2.65165 1
    endloop
  endfacet
  facet normal 0.75184 0.659346 0
    outer loop
      vertex 2.65165 2.65165 0
      vertex 2.97507 2.28286 1
      vertex 2.97507 2.28286 0
    endloop
  endfacet
  facet normal -0.321434 -0.946932 0
    outer loop
      vertex -1.43506 -3.46455 0
      vertex -0.970571 -3.62222 1
      vertex -1.43506 -3.46455 1
    endloop
  endfacet
  facet normal -0.321434 -0.946932 -0
    outer loop
      vertex -0.970571 -3.62222 1
      vertex -1.43506 -3.46455 0
      vertex -0.970571 -3.62222 0
    endloop
  endfacet
  facet normal 0.442298 -0.896868 0
    outer loop
      vertex 1.43506 -3.46455 0
      vertex 1.875 -3.24759 1
      vertex 1.43506 -3.46455 1
    endloop
  endfacet
  facet normal 0.442298 -0.896868 0
    outer loop
      vertex 1.875 -3.24759 1
      vertex 1.43506 -3.46455 0
      vertex 1.875 -3.24759 0
    endloop
  endfacet
  facet normal -0.442298 0.896868 0
    outer loop
      vertex -1.43506 3.46455 0
      vertex -1.875 3.24759 1
      vertex -1.43506 3.46455 1
    endloop
  endfacet
  facet normal -0.442298 0.896868 0
    outer loop
      vertex -1.875 3.24759 1
      vertex -1.43506 3.46455 0
      vertex -1.875 3.24759 0
    endloop
  endfacet
  facet normal 0 0 1
    outer loop
      vertex 2 0 1
      vertex 3.75 0 1
      vertex 3.71792 0.489472 1
    endloop
  endfacet
  facet normal 0 0 1
    outer loop
      vertex 1.98289 0.261052 1
      vertex 3.71792 0.489472 1
      vertex 3.62222 0.970571 1
    endloop
  endfacet
  facet normal 0 0 1
    outer loop
      vertex 3.75 0 1
      vertex 2 0 1
      vertex 3.71792 -0.489472 1
    endloop
  endfacet
  facet normal 0 0 1
    outer loop
      vertex 1.93185 0.517637 1
      vertex 3.62222 0.970571 1
      vertex 3.46455 1.43506 1
    endloop
  endfacet
  facet normal -0 0 1
    outer loop
      vertex 1.98289 -0.261052 1
      vertex 3.71792 -0.489472 1
      vertex 2 0 1
    endloop
  endfacet
  facet normal 0 0 1
    outer loop
      vertex 1.84776 0.765367 1
      vertex 3.46455 1.43506 1
      vertex 3.24759 1.875 1
    endloop
  endfacet
  facet normal 0 0 1
    outer loop
      vertex 3.71792 -0.489472 1
      vertex 1.98289 -0.261052 1
      vertex 3.62222 -0.970571 1
    endloop
  endfacet
  facet normal 0 0 1
    outer loop
      vertex 1.73205 1 1
      vertex 3.24759 1.875 1
      vertex 2.97507 2.28286 1
    endloop
  endfacet
  facet normal -0 0 1
    outer loop
      vertex 1.93185 -0.517637 1
      vertex 3.62222 -0.970571 1
      vertex 1.98289 -0.261052 1
    endloop
  endfacet
  facet normal 0 0 1
    outer loop
      vertex 1.58671 1.21752 1
      vertex 2.97507 2.28286 1
      vertex 2.65165 2.65165 1
    endloop
  endfacet
  facet normal 0 0 1
    outer loop
      vertex 3.62222 -0.970571 1
      vertex 1.93185 -0.517637 1
      vertex 3.46455 -1.43506 1
    endloop
  endfacet
  facet normal 0 0 1
    outer loop
      vertex 1.41421 1.41421 1
      vertex 2.65165 2.65165 1
      vertex 2.28286 2.97507 1
    endloop
  endfacet
  facet normal -0 0 1
    outer loop
      vertex 1.84776 -0.765367 1
      vertex 3.46455 -1.43506 1
      vertex 1.93185 -0.517637 1
    endloop
  endfacet
  facet normal 0 0 1
    outer loop
      vertex 3.46455 -1.43506 1
      vertex 1.84776 -0.765367 1
      vertex 3.24759 -1.875 1
    endloop
  endfacet
  facet normal 0 0 1
    outer loop
      vertex 3.71792 0.489472 1
      vertex 1.98289 0.261052 1
      vertex 2 0 1
    endloop
  endfacet
  facet normal 0 0 1
    outer loop
      vertex 3.62222 0.970571 1
      vertex 1.93185 0.517637 1
      vertex 1.98289 0.261052 1
    endloop
  endfacet
  facet normal 0 0 1
    outer loop
      vertex 1.21752 1.58671 1
      vertex 2.28286 2.97507 1
      vertex 1.875 3.24759 1
    endloop
  endfacet
  facet normal 0 0 1
    outer loop
      vertex 3.46455 1.43506 1
      vertex 1.84776 0.765367 1
      vertex 1.93185 0.517637 1
    endloop
  endfacet
  facet normal 0 0 1
    outer loop
      vertex 3.24759 1.875 1
      vertex 1.73205 1 1
      vertex 1.84776 0.765367 1
    endloop
  endfacet
  facet normal 0 0 1
    outer loop
      vertex 2.97507 2.28286 1
      vertex 1.58671 1.21752 1
      vertex 1.73205 1 1
    endloop
  endfacet
  facet normal 0 0 1
    outer loop
      vertex 1 1.73205 1
      vertex 1.875 3.24759 1
      vertex 1.43506 3.46455 1
    endloop
  endfacet
  facet normal 0 0 1
    outer loop
      vertex 2.65165 2.65165 1
      vertex 1.41421 1.41421 1
      vertex 1.58671 1.21752 1
    endloop
  endfacet
  facet normal 0 0 1
    outer loop
      vertex 2.28286 2.97507 1
      vertex 1.21752 1.58671 1
      vertex 1.41421 1.41421 1
    endloop
  endfacet
  facet normal 0 0 1
    outer loop
      vertex 1.875 3.24759 1
      vertex 1 1.73205 1
      vertex 1.21752 1.58671 1
    endloop
  endfacet
  facet normal 0 0 1
    outer loop
      vertex 0.765367 1.84776 1
      vertex 1.43506 3.46455 1
      vertex 0.970571 3.62222 1
    endloop
  endfacet
  facet normal 0 0 1
    outer loop
      vertex 1.43506 3.46455 1
      vertex 0.765367 1.84776 1
      vertex 1 1.73205 1
    endloop
  endfacet
  facet normal 0 0 1
    outer loop
      vertex 0.970571 3.62222 1
      vertex 0.517637 1.93185 1
      vertex 0.765367 1.84776 1
    endloop
  endfacet
  facet normal 0 0 1
    outer loop
      vertex 0.489472 3.71792 1
      vertex 0.517637 1.93185 1
      vertex 0.970571 3.62222 1
    endloop
  endfacet
  facet normal 0 0 1
    outer loop
      vertex 0.489472 3.71792 1
      vertex 0.261052 1.98289 1
      vertex 0.517637 1.93185 1
    endloop
  endfacet
  facet normal 0 0 1
    outer loop
      vertex 0 3.75 1
      vertex 0.261052 1.98289 1
      vertex 0.489472 3.71792 1
    endloop
  endfacet
  facet normal 0 0 1
    outer loop
      vertex 0 3.75 1
      vertex 0 2 1
      vertex 0.261052 1.98289 1
    endloop
  endfacet
  facet normal 0 0 1
    outer loop
      vertex 0 3.75 1
      vertex -0.261052 1.98289 1
      vertex 0 2 1
    endloop
  endfacet
  facet normal -0 0 1
    outer loop
      vertex -0.489472 3.71792 1
      vertex -0.261052 1.98289 1
      vertex 0 3.75 1
    endloop
  endfacet
  facet normal 0 0 1
    outer loop
      vertex -0.489472 3.71792 1
      vertex -0.517637 1.93185 1
      vertex -0.261052 1.98289 1
    endloop
  endfacet
  facet normal -0 0 1
    outer loop
      vertex -0.970571 3.62222 1
      vertex -0.517637 1.93185 1
      vertex -0.489472 3.71792 1
    endloop
  endfacet
  facet normal 0 0 1
    outer loop
      vertex -0.517637 1.93185 1
      vertex -0.970571 3.62222 1
      vertex -0.765367 1.84776 1
    endloop
  endfacet
  facet normal -0 0 1
    outer loop
      vertex -1.43506 3.46455 1
      vertex -0.765367 1.84776 1
      vertex -0.970571 3.62222 1
    endloop
  endfacet
  facet normal 0 0 1
    outer loop
      vertex -0.765367 1.84776 1
      vertex -1.43506 3.46455 1
      vertex -1 1.73205 1
    endloop
  endfacet
  facet normal -0 0 1
    outer loop
      vertex -1.875 3.24759 1
      vertex -1 1.73205 1
      vertex -1.43506 3.46455 1
    endloop
  endfacet
  facet normal 0 0 1
    outer loop
      vertex -1 1.73205 1
      vertex -1.875 3.24759 1
      vertex -1.21752 1.58671 1
    endloop
  endfacet
  facet normal -0 0 1
    outer loop
      vertex -2.28286 2.97507 1
      vertex -1.21752 1.58671 1
      vertex -1.875 3.24759 1
    endloop
  endfacet
  facet normal 0 0 1
    outer loop
      vertex -1.21752 1.58671 1
      vertex -2.28286 2.97507 1
      vertex -1.41421 1.41421 1
    endloop
  endfacet
  facet normal -0 0 1
    outer loop
      vertex -2.65165 2.65165 1
      vertex -1.41421 1.41421 1
      vertex -2.28286 2.97507 1
    endloop
  endfacet
  facet normal 0 0 1
    outer loop
      vertex -1.41421 1.41421 1
      vertex -2.65165 2.65165 1
      vertex -1.58671 1.21752 1
    endloop
  endfacet
  facet normal -0 0 1
    outer loop
      vertex -2.97507 2.28286 1
      vertex -1.58671 1.21752 1
      vertex -2.65165 2.65165 1
    endloop
  endfacet
  facet normal 0 0 1
    outer loop
      vertex -1.58671 1.21752 1
      vertex -2.97507 2.28286 1
      vertex -1.73205 1 1
    endloop
  endfacet
  facet normal -0 0 1
    outer loop
      vertex -3.24759 1.875 1
      vertex -1.73205 1 1
      vertex -2.97507 2.28286 1
    endloop
  endfacet
  facet normal 0 0 1
    outer loop
      vertex -1.73205 1 1
      vertex -3.24759 1.875 1
      vertex -1.84776 0.765367 1
    endloop
  endfacet
  facet normal -0 0 1
    outer loop
      vertex 1.73205 -1 1
      vertex 3.24759 -1.875 1
      vertex 1.84776 -0.765367 1
    endloop
  endfacet
  facet normal 0 0 1
    outer loop
      vertex 3.24759 -1.875 1
      vertex 1.73205 -1 1
      vertex 2.97507 -2.28286 1
    endloop
  endfacet
  facet normal -0 0 1
    outer loop
      vertex 1.58671 -1.21752 1
      vertex 2.97507 -2.28286 1
      vertex 1.73205 -1 1
    endloop
  endfacet
  facet normal 0 0 1
    outer loop
      vertex 2.97507 -2.28286 1
      vertex 1.58671 -1.21752 1
      vertex 2.65165 -2.65165 1
    endloop
  endfacet
  facet normal -0 0 1
    outer loop
      vertex 1.41421 -1.41421 1
      vertex 2.65165 -2.65165 1
      vertex 1.58671 -1.21752 1
    endloop
  endfacet
  facet normal 0 0 1
    outer loop
      vertex 2.65165 -2.65165 1
      vertex 1.41421 -1.41421 1
      vertex 2.28286 -2.97507 1
    endloop
  endfacet
  facet normal -0 0 1
    outer loop
      vertex 1.21752 -1.58671 1
      vertex 2.28286 -2.97507 1
      vertex 1.41421 -1.41421 1
    endloop
  endfacet
  facet normal 0 0 1
    outer loop
      vertex 2.28286 -2.97507 1
      vertex 1.21752 -1.58671 1
      vertex 1.875 -3.24759 1
    endloop
  endfacet
  facet normal -0 0 1
    outer loop
      vertex 1 -1.73205 1
      vertex 1.875 -3.24759 1
      vertex 1.21752 -1.58671 1
    endloop
  endfacet
  facet normal 0 0 1
    outer loop
      vertex 1.875 -3.24759 1
      vertex 1 -1.73205 1
      vertex 1.43506 -3.46455 1
    endloop
  endfacet
  facet normal -0 0 1
    outer loop
      vertex 0.765367 -1.84776 1
      vertex 1.43506 -3.46455 1
      vertex 1 -1.73205 1
    endloop
  endfacet
  facet normal 0 0 1
    outer loop
      vertex 1.43506 -3.46455 1
      vertex 0.765367 -1.84776 1
      vertex 0.970571 -3.62222 1
    endloop
  endfacet
  facet normal -0 0 1
    outer loop
      vertex 0.517637 -1.93185 1
      vertex 0.970571 -3.62222 1
      vertex 0.765367 -1.84776 1
    endloop
  endfacet
  facet normal 0 0 1
    outer loop
      vertex 0.517637 -1.93185 1
      vertex 0.489472 -3.71792 1
      vertex 0.970571 -3.62222 1
    endloop
  endfacet
  facet normal -0 0 1
    outer loop
      vertex 0.261052 -1.98289 1
      vertex 0.489472 -3.71792 1
      vertex 0.517637 -1.93185 1
    endloop
  endfacet
  facet normal -0 0 1
    outer loop
      vertex 0 -2 1
      vertex 0.489472 -3.71792 1
      vertex 0.261052 -1.98289 1
    endloop
  endfacet
  facet normal 0 0 1
    outer loop
      vertex 0 -2 1
      vertex 0 -3.75 1
      vertex 0.489472 -3.71792 1
    endloop
  endfacet
  facet normal 0 0 1
    outer loop
      vertex -0.261052 -1.98289 1
      vertex 0 -3.75 1
      vertex 0 -2 1
    endloop
  endfacet
  facet normal 0 0 1
    outer loop
      vertex -0.261052 -1.98289 1
      vertex -0.489472 -3.71792 1
      vertex 0 -3.75 1
    endloop
  endfacet
  facet normal 0 0 1
    outer loop
      vertex -0.517637 -1.93185 1
      vertex -0.489472 -3.71792 1
      vertex -0.261052 -1.98289 1
    endloop
  endfacet
  facet normal 0 0 1
    outer loop
      vertex -0.970571 -3.62222 1
      vertex -0.517637 -1.93185 1
      vertex -0.765367 -1.84776 1
    endloop
  endfacet
  facet normal 0 0 1
    outer loop
      vertex -0.517637 -1.93185 1
      vertex -0.970571 -3.62222 1
      vertex -0.489472 -3.71792 1
    endloop
  endfacet
  facet normal 0 0 1
    outer loop
      vertex -1.43506 -3.46455 1
      vertex -0.765367 -1.84776 1
      vertex -1 -1.73205 1
    endloop
  endfacet
  facet normal 0 0 1
    outer loop
      vertex -1.875 -3.24759 1
      vertex -1 -1.73205 1
      vertex -1.21752 -1.58671 1
    endloop
  endfacet
  facet normal 0 0 1
    outer loop
      vertex -2.28286 -2.97507 1
      vertex -1.21752 -1.58671 1
      vertex -1.41421 -1.41421 1
    endloop
  endfacet
  facet normal 0 0 1
    outer loop
      vertex -0.765367 -1.84776 1
      vertex -1.43506 -3.46455 1
      vertex -0.970571 -3.62222 1
    endloop
  endfacet
  facet normal 0 0 1
    outer loop
      vertex -2.65165 -2.65165 1
      vertex -1.41421 -1.41421 1
      vertex -1.58671 -1.21752 1
    endloop
  endfacet
  facet normal 0 0 1
    outer loop
      vertex -2.97507 -2.28286 1
      vertex -1.58671 -1.21752 1
      vertex -1.73205 -1 1
    endloop
  endfacet
  facet normal 0 0 1
    outer loop
      vertex -3.24759 -1.875 1
      vertex -1.73205 -1 1
      vertex -1.84776 -0.765367 1
    endloop
  endfacet
  facet normal 0 0 1
    outer loop
      vertex -1 -1.73205 1
      vertex -1.875 -3.24759 1
      vertex -1.43506 -3.46455 1
    endloop
  endfacet
  facet normal 0 0 1
    outer loop
      vertex -3.46455 -1.43506 1
      vertex -1.84776 -0.765367 1
      vertex -1.93185 -0.517637 1
    endloop
  endfacet
  facet normal 0 0 1
    outer loop
      vertex -3.62222 -0.970571 1
      vertex -1.93185 -0.517637 1
      vertex -1.98289 -0.261052 1
    endloop
  endfacet
  facet normal 0 0 1
    outer loop
      vertex -3.71792 -0.489472 1
      vertex -1.98289 -0.261052 1
      vertex -2 0 1
    endloop
  endfacet
  facet normal -0 0 1
    outer loop
      vertex -3.46455 1.43506 1
      vertex -1.84776 0.765367 1
      vertex -3.24759 1.875 1
    endloop
  endfacet
  facet normal 0 0 1
    outer loop
      vertex -1.21752 -1.58671 1
      vertex -2.28286 -2.97507 1
      vertex -1.875 -3.24759 1
    endloop
  endfacet
  facet normal 0 0 1
    outer loop
      vertex -1.84776 0.765367 1
      vertex -3.46455 1.43506 1
      vertex -1.93185 0.517637 1
    endloop
  endfacet
  facet normal 0 0 1
    outer loop
      vertex -1.41421 -1.41421 1
      vertex -2.65165 -2.65165 1
      vertex -2.28286 -2.97507 1
    endloop
  endfacet
  facet normal -0 0 1
    outer loop
      vertex -3.62222 0.970571 1
      vertex -1.93185 0.517637 1
      vertex -3.46455 1.43506 1
    endloop
  endfacet
  facet normal 0 0 1
    outer loop
      vertex -1.58671 -1.21752 1
      vertex -2.97507 -2.28286 1
      vertex -2.65165 -2.65165 1
    endloop
  endfacet
  facet normal 0 0 1
    outer loop
      vertex -1.93185 0.517637 1
      vertex -3.62222 0.970571 1
      vertex -1.98289 0.261052 1
    endloop
  endfacet
  facet normal 0 0 1
    outer loop
      vertex -1.73205 -1 1
      vertex -3.24759 -1.875 1
      vertex -2.97507 -2.28286 1
    endloop
  endfacet
  facet normal -0 0 1
    outer loop
      vertex -3.71792 0.489472 1
      vertex -1.98289 0.261052 1
      vertex -3.62222 0.970571 1
    endloop
  endfacet
  facet normal 0 0 1
    outer loop
      vertex -1.84776 -0.765367 1
      vertex -3.46455 -1.43506 1
      vertex -3.24759 -1.875 1
    endloop
  endfacet
  facet normal 0 0 1
    outer loop
      vertex -1.98289 0.261052 1
      vertex -3.71792 0.489472 1
      vertex -2 0 1
    endloop
  endfacet
  facet normal 0 0 1
    outer loop
      vertex -1.93185 -0.517637 1
      vertex -3.62222 -0.970571 1
      vertex -3.46455 -1.43506 1
    endloop
  endfacet
  facet normal 0 0 1
    outer loop
      vertex -3.75 0 1
      vertex -2 0 1
      vertex -3.71792 0.489472 1
    endloop
  endfacet
  facet normal 0 0 1
    outer loop
      vertex -1.98289 -0.261052 1
      vertex -3.71792 -0.489472 1
      vertex -3.62222 -0.970571 1
    endloop
  endfacet
  facet normal 0 0 1
    outer loop
      vertex -2 0 1
      vertex -3.75 0 1
      vertex -3.71792 -0.489472 1
    endloop
  endfacet
  facet normal 0.980784 -0.195097 0
    outer loop
      vertex 3.62222 -0.970571 1
      vertex 3.71792 -0.489472 0
      vertex 3.71792 -0.489472 1
    endloop
  endfacet
  facet normal 0.980784 -0.195097 0
    outer loop
      vertex 3.71792 -0.489472 0
      vertex 3.62222 -0.970571 1
      vertex 3.62222 -0.970571 0
    endloop
  endfacet
  facet normal -0.946932 -0.321434 0
    outer loop
      vertex -3.46455 -1.43506 0
      vertex -3.62222 -0.970571 1
      vertex -3.62222 -0.970571 0
    endloop
  endfacet
  facet normal -0.946932 -0.321434 0
    outer loop
      vertex -3.62222 -0.970571 1
      vertex -3.46455 -1.43506 0
      vertex -3.46455 -1.43506 1
    endloop
  endfacet
  facet normal 0.946932 -0.321434 0
    outer loop
      vertex 3.46455 -1.43506 1
      vertex 3.62222 -0.970571 0
      vertex 3.62222 -0.970571 1
    endloop
  endfacet
  facet normal 0.946932 -0.321434 0
    outer loop
      vertex 3.62222 -0.970571 0
      vertex 3.46455 -1.43506 1
      vertex 3.46455 -1.43506 0
    endloop
  endfacet
  facet normal 0.555566 0.831473 -0
    outer loop
      vertex 2.28286 2.97507 0
      vertex 1.875 3.24759 1
      vertex 2.28286 2.97507 1
    endloop
  endfacet
  facet normal 0.555566 0.831473 0
    outer loop
      vertex 1.875 3.24759 1
      vertex 2.28286 2.97507 0
      vertex 1.875 3.24759 0
    endloop
  endfacet
  facet normal 0.442298 0.896868 -0
    outer loop
      vertex 1.875 3.24759 0
      vertex 1.43506 3.46455 1
      vertex 1.875 3.24759 1
    endloop
  endfacet
  facet normal 0.442298 0.896868 0
    outer loop
      vertex 1.43506 3.46455 1
      vertex 1.875 3.24759 0
      vertex 1.43506 3.46455 0
    endloop
  endfacet
  facet normal -0.195097 0.980784 0
    outer loop
      vertex -0.489472 3.71792 0
      vertex -0.970571 3.62222 1
      vertex -0.489472 3.71792 1
    endloop
  endfacet
  facet normal -0.195097 0.980784 0
    outer loop
      vertex -0.970571 3.62222 1
      vertex -0.489472 3.71792 0
      vertex -0.970571 3.62222 0
    endloop
  endfacet
  facet normal -0.442298 -0.896868 0
    outer loop
      vertex -1.875 -3.24759 0
      vertex -1.43506 -3.46455 1
      vertex -1.875 -3.24759 1
    endloop
  endfacet
  facet normal -0.442298 -0.896868 -0
    outer loop
      vertex -1.43506 -3.46455 1
      vertex -1.875 -3.24759 0
      vertex -1.43506 -3.46455 0
    endloop
  endfacet
  facet normal -0.0653997 0.997859 0
    outer loop
      vertex 0 3.75 0
      vertex -0.489472 3.71792 1
      vertex 0 3.75 1
    endloop
  endfacet
  facet normal -0.0653997 0.997859 0
    outer loop
      vertex -0.489472 3.71792 1
      vertex 0 3.75 0
      vertex -0.489472 3.71792 0
    endloop
  endfacet
  facet normal -0.75184 0.659346 0
    outer loop
      vertex -2.97507 2.28286 0
      vertex -2.65165 2.65165 1
      vertex -2.65165 2.65165 0
    endloop
  endfacet
  facet normal -0.75184 0.659346 0
    outer loop
      vertex -2.65165 2.65165 1
      vertex -2.97507 2.28286 0
      vertex -2.97507 2.28286 1
    endloop
  endfacet
  facet normal 0.997859 -0.0653997 0
    outer loop
      vertex 3.71792 -0.489472 1
      vertex 3.75 0 0
      vertex 3.75 0 1
    endloop
  endfacet
  facet normal 0.997859 -0.0653997 0
    outer loop
      vertex 3.75 0 0
      vertex 3.71792 -0.489472 1
      vertex 3.71792 -0.489472 0
    endloop
  endfacet
  facet normal -0.946932 0.321434 0
    outer loop
      vertex -3.62222 0.970571 0
      vertex -3.46455 1.43506 1
      vertex -3.46455 1.43506 0
    endloop
  endfacet
  facet normal -0.946932 0.321434 0
    outer loop
      vertex -3.46455 1.43506 1
      vertex -3.62222 0.970571 0
      vertex -3.62222 0.970571 1
    endloop
  endfacet
  facet normal -0.659346 -0.75184 0
    outer loop
      vertex -2.65165 -2.65165 0
      vertex -2.28286 -2.97507 1
      vertex -2.65165 -2.65165 1
    endloop
  endfacet
  facet normal -0.659346 -0.75184 -0
    outer loop
      vertex -2.28286 -2.97507 1
      vertex -2.65165 -2.65165 0
      vertex -2.28286 -2.97507 0
    endloop
  endfacet
  facet normal 0 0 -1
    outer loop
      vertex 3.71792 -0.489472 0
      vertex 3.71792 0.489472 0
      vertex 3.75 0 0
    endloop
  endfacet
  facet normal 0 0 -1
    outer loop
      vertex 3.62222 -0.970571 0
      vertex 3.71792 0.489472 0
      vertex 3.71792 -0.489472 0
    endloop
  endfacet
  facet normal 0 0 -1
    outer loop
      vertex 3.62222 -0.970571 0
      vertex 3.62222 0.970571 0
      vertex 3.71792 0.489472 0
    endloop
  endfacet
  facet normal 0 0 -1
    outer loop
      vertex 3.46455 -1.43506 0
      vertex 3.62222 0.970571 0
      vertex 3.62222 -0.970571 0
    endloop
  endfacet
  facet normal 0 0 -1
    outer loop
      vertex 3.46455 -1.43506 0
      vertex 3.46455 1.43506 0
      vertex 3.62222 0.970571 0
    endloop
  endfacet
  facet normal 0 0 -1
    outer loop
      vertex 3.24759 -1.875 0
      vertex 3.46455 1.43506 0
      vertex 3.46455 -1.43506 0
    endloop
  endfacet
  facet normal 0 0 -1
    outer loop
      vertex 3.24759 -1.875 0
      vertex 3.24759 1.875 0
      vertex 3.46455 1.43506 0
    endloop
  endfacet
  facet normal 0 0 -1
    outer loop
      vertex 2.97507 -2.28286 0
      vertex 3.24759 1.875 0
      vertex 3.24759 -1.875 0
    endloop
  endfacet
  facet normal 0 0 -1
    outer loop
      vertex 2.97507 -2.28286 0
      vertex 2.97507 2.28286 0
      vertex 3.24759 1.875 0
    endloop
  endfacet
  facet normal 0 0 -1
    outer loop
      vertex 2.65165 -2.65165 0
      vertex 2.97507 2.28286 0
      vertex 2.97507 -2.28286 0
    endloop
  endfacet
  facet normal 0 0 -1
    outer loop
      vertex 2.65165 -2.65165 0
      vertex 2.65165 2.65165 0
      vertex 2.97507 2.28286 0
    endloop
  endfacet
  facet normal 0 0 -1
    outer loop
      vertex 2.28286 -2.97507 0
      vertex 2.65165 2.65165 0
      vertex 2.65165 -2.65165 0
    endloop
  endfacet
  facet normal 0 0 -1
    outer loop
      vertex 2.28286 -2.97507 0
      vertex 2.28286 2.97507 0
      vertex 2.65165 2.65165 0
    endloop
  endfacet
  facet normal 0 0 -1
    outer loop
      vertex 1.875 -3.24759 0
      vertex 2.28286 2.97507 0
      vertex 2.28286 -2.97507 0
    endloop
  endfacet
  facet normal 0 0 -1
    outer loop
      vertex 1.875 -3.24759 0
      vertex 1.875 3.24759 0
      vertex 2.28286 2.97507 0
    endloop
  endfacet
  facet normal 0 0 -1
    outer loop
      vertex 1.43506 -3.46455 0
      vertex 1.875 3.24759 0
      vertex 1.875 -3.24759 0
    endloop
  endfacet
  facet normal 0 0 -1
    outer loop
      vertex 1.43506 -3.46455 0
      vertex 1.43506 3.46455 0
      vertex 1.875 3.24759 0
    endloop
  endfacet
  facet normal 0 0 -1
    outer loop
      vertex 0.970571 -3.62222 0
      vertex 1.43506 3.46455 0
      vertex 1.43506 -3.46455 0
    endloop
  endfacet
  facet normal 0 0 -1
    outer loop
      vertex 0.970571 -3.62222 0
      vertex 0.970571 3.62222 0
      vertex 1.43506 3.46455 0
    endloop
  endfacet
  facet normal 0 0 -1
    outer loop
      vertex 0.489472 -3.71792 0
      vertex 0.970571 3.62222 0
      vertex 0.970571 -3.62222 0
    endloop
  endfacet
  facet normal 0 0 -1
    outer loop
      vertex 0.489472 -3.71792 0
      vertex 0.489472 3.71792 0
      vertex 0.970571 3.62222 0
    endloop
  endfacet
  facet normal 0 0 -1
    outer loop
      vertex 0 -3.75 0
      vertex 0.489472 3.71792 0
      vertex 0.489472 -3.71792 0
    endloop
  endfacet
  facet normal 0 0 -1
    outer loop
      vertex 0 -3.75 0
      vertex 0 3.75 0
      vertex 0.489472 3.71792 0
    endloop
  endfacet
  facet normal 0 0 -1
    outer loop
      vertex -0.489472 -3.71792 0
      vertex 0 3.75 0
      vertex 0 -3.75 0
    endloop
  endfacet
  facet normal 0 0 -1
    outer loop
      vertex -0.489472 -3.71792 0
      vertex -0.489472 3.71792 0
      vertex 0 3.75 0
    endloop
  endfacet
  facet normal 0 0 -1
    outer loop
      vertex -0.970571 -3.62222 0
      vertex -0.489472 3.71792 0
      vertex -0.489472 -3.71792 0
    endloop
  endfacet
  facet normal 0 0 -1
    outer loop
      vertex -0.970571 -3.62222 0
      vertex -0.970571 3.62222 0
      vertex -0.489472 3.71792 0
    endloop
  endfacet
  facet normal 0 0 -1
    outer loop
      vertex -1.43506 -3.46455 0
      vertex -0.970571 3.62222 0
      vertex -0.970571 -3.62222 0
    endloop
  endfacet
  facet normal 0 0 -1
    outer loop
      vertex -1.43506 -3.46455 0
      vertex -1.43506 3.46455 0
      vertex -0.970571 3.62222 0
    endloop
  endfacet
  facet normal 0 0 -1
    outer loop
      vertex -1.875 -3.24759 0
      vertex -1.43506 3.46455 0
      vertex -1.43506 -3.46455 0
    endloop
  endfacet
  facet normal 0 0 -1
    outer loop
      vertex -1.875 -3.24759 0
      vertex -1.875 3.24759 0
      vertex -1.43506 3.46455 0
    endloop
  endfacet
  facet normal 0 0 -1
    outer loop
      vertex -2.28286 -2.97507 0
      vertex -1.875 3.24759 0
      vertex -1.875 -3.24759 0
    endloop
  endfacet
  facet normal 0 0 -1
    outer loop
      vertex -2.28286 -2.97507 0
      vertex -2.28286 2.97507 0
      vertex -1.875 3.24759 0
    endloop
  endfacet
  facet normal 0 0 -1
    outer loop
      vertex -2.65165 -2.65165 0
      vertex -2.28286 2.97507 0
      vertex -2.28286 -2.97507 0
    endloop
  endfacet
  facet normal 0 0 -1
    outer loop
      vertex -2.65165 -2.65165 0
      vertex -2.65165 2.65165 0
      vertex -2.28286 2.97507 0
    endloop
  endfacet
  facet normal 0 0 -1
    outer loop
      vertex -2.97507 -2.28286 0
      vertex -2.65165 2.65165 0
      vertex -2.65165 -2.65165 0
    endloop
  endfacet
  facet normal 0 0 -1
    outer loop
      vertex -2.97507 -2.28286 0
      vertex -2.97507 2.28286 0
      vertex -2.65165 2.65165 0
    endloop
  endfacet
  facet normal 0 0 -1
    outer loop
      vertex -3.24759 -1.875 0
      vertex -2.97507 2.28286 0
      vertex -2.97507 -2.28286 0
    endloop
  endfacet
  facet normal 0 0 -1
    outer loop
      vertex -3.24759 -1.875 0
      vertex -3.24759 1.875 0
      vertex -2.97507 2.28286 0
    endloop
  endfacet
  facet normal 0 0 -1
    outer loop
      vertex -3.46455 -1.43506 0
      vertex -3.24759 1.875 0
      vertex -3.24759 -1.875 0
    endloop
  endfacet
  facet normal 0 0 -1
    outer loop
      vertex -3.46455 -1.43506 0
      vertex -3.46455 1.43506 0
      vertex -3.24759 1.875 0
    endloop
  endfacet
  facet normal 0 0 -1
    outer loop
      vertex -3.62222 -0.970571 0
      vertex -3.46455 1.43506 0
      vertex -3.46455 -1.43506 0
    endloop
  endfacet
  facet normal 0 0 -1
    outer loop
      vertex -3.62222 -0.970571 0
      vertex -3.62222 0.970571 0
      vertex -3.46455 1.43506 0
    endloop
  endfacet
  facet normal 0 0 -1
    outer loop
      vertex -3.71792 -0.489472 0
      vertex -3.62222 0.970571 0
      vertex -3.62222 -0.970571 0
    endloop
  endfacet
  facet normal 0 0 -1
    outer loop
      vertex -3.71792 -0.489472 0
      vertex -3.71792 0.489472 0
      vertex -3.62222 0.970571 0
    endloop
  endfacet
  facet normal 0 -0 -1
    outer loop
      vertex -3.71792 0.489472 0
      vertex -3.71792 -0.489472 0
      vertex -3.75 0 0
    endloop
  endfacet
  facet normal 0.0653997 0.997859 -0
    outer loop
      vertex 0.489472 3.71792 0
      vertex 0 3.75 1
      vertex 0.489472 3.71792 1
    endloop
  endfacet
  facet normal 0.0653997 0.997859 0
    outer loop
      vertex 0 3.75 1
      vertex 0.489472 3.71792 0
      vertex 0 3.75 0
    endloop
  endfacet
  facet normal 0.831473 0.555566 0
    outer loop
      vertex 3.24759 1.875 1
      vertex 2.97507 2.28286 0
      vertex 2.97507 2.28286 1
    endloop
  endfacet
  facet normal 0.831473 0.555566 0
    outer loop
      vertex 2.97507 2.28286 0
      vertex 3.24759 1.875 1
      vertex 3.24759 1.875 0
    endloop
  endfacet
  facet normal -0.896868 -0.442298 0
    outer loop
      vertex -3.24759 -1.875 0
      vertex -3.46455 -1.43506 1
      vertex -3.46455 -1.43506 0
    endloop
  endfacet
  facet normal -0.896868 -0.442298 0
    outer loop
      vertex -3.46455 -1.43506 1
      vertex -3.24759 -1.875 0
      vertex -3.24759 -1.875 1
    endloop
  endfacet
  facet normal 0.831473 -0.555566 0
    outer loop
      vertex 2.97507 -2.28286 1
      vertex 3.24759 -1.875 0
      vertex 3.24759 -1.875 1
    endloop
  endfacet
  facet normal 0.831473 -0.555566 0
    outer loop
      vertex 3.24759 -1.875 0
      vertex 2.97507 -2.28286 1
      vertex 2.97507 -2.28286 0
    endloop
  endfacet
  facet normal -0.0653997 -0.997859 0
    outer loop
      vertex -0.489472 -3.71792 0
      vertex 0 -3.75 1
      vertex -0.489472 -3.71792 1
    endloop
  endfacet
  facet normal -0.0653997 -0.997859 -0
    outer loop
      vertex 0 -3.75 1
      vertex -0.489472 -3.71792 0
      vertex 0 -3.75 0
    endloop
  endfacet
  facet normal -0.980784 0.195097 0
    outer loop
      vertex -3.71792 0.489472 0
      vertex -3.62222 0.970571 1
      vertex -3.62222 0.970571 0
    endloop
  endfacet
  facet normal -0.980784 0.195097 0
    outer loop
      vertex -3.62222 0.970571 1
      vertex -3.71792 0.489472 0
      vertex -3.71792 0.489472 1
    endloop
  endfacet
  facet normal -0.555566 -0.831473 0
    outer loop
      vertex -2.28286 -2.97507 0
      vertex -1.875 -3.24759 1
      vertex -2.28286 -2.97507 1
    endloop
  endfacet
  facet normal -0.555566 -0.831473 -0
    outer loop
      vertex -1.875 -3.24759 1
      vertex -2.28286 -2.97507 0
      vertex -1.875 -3.24759 0
    endloop
  endfacet
  facet normal -0.555566 0.831473 0
    outer loop
      vertex -1.875 3.24759 0
      vertex -2.28286 2.97507 1
      vertex -1.875 3.24759 1
    endloop
  endfacet
  facet normal -0.555566 0.831473 0
    outer loop
      vertex -2.28286 2.97507 1
      vertex -1.875 3.24759 0
      vertex -2.28286 2.97507 0
    endloop
  endfacet
  facet normal -0.980784 -0.195097 0
    outer loop
      vertex -3.62222 -0.970571 0
      vertex -3.71792 -0.489472 1
      vertex -3.71792 -0.489472 0
    endloop
  endfacet
  facet normal -0.980784 -0.195097 0
    outer loop
      vertex -3.71792 -0.489472 1
      vertex -3.62222 -0.970571 0
      vertex -3.62222 -0.970571 1
    endloop
  endfacet
  facet normal -0.75184 -0.659346 0
    outer loop
      vertex -2.65165 -2.65165 0
      vertex -2.97507 -2.28286 1
      vertex -2.97507 -2.28286 0
    endloop
  endfacet
  facet normal -0.75184 -0.659346 0
    outer loop
      vertex -2.97507 -2.28286 1
      vertex -2.65165 -2.65165 0
      vertex -2.65165 -2.65165 1
    endloop
  endfacet
  facet normal 0.555566 -0.831473 0
    outer loop
      vertex 1.875 -3.24759 0
      vertex 2.28286 -2.97507 1
      vertex 1.875 -3.24759 1
    endloop
  endfacet
  facet normal 0.555566 -0.831473 0
    outer loop
      vertex 2.28286 -2.97507 1
      vertex 1.875 -3.24759 0
      vertex 2.28286 -2.97507 0
    endloop
  endfacet
  facet normal -0.831473 0.555566 0
    outer loop
      vertex -3.24759 1.875 0
      vertex -2.97507 2.28286 1
      vertex -2.97507 2.28286 0
    endloop
  endfacet
  facet normal -0.831473 0.555566 0
    outer loop
      vertex -2.97507 2.28286 1
      vertex -3.24759 1.875 0
      vertex -3.24759 1.875 1
    endloop
  endfacet
  facet normal 0.980784 0.195098 0
    outer loop
      vertex 1.98289 0.261052 8.5
      vertex 1.93185 0.517637 1
      vertex 1.93185 0.517637 8.5
    endloop
  endfacet
  facet normal 0.980784 0.195098 0
    outer loop
      vertex 1.93185 0.517637 1
      vertex 1.98289 0.261052 8.5
      vertex 1.98289 0.261052 1
    endloop
  endfacet
  facet normal 0.997859 0.0654022 0
    outer loop
      vertex 2 0 8.5
      vertex 1.98289 0.261052 1
      vertex 1.98289 0.261052 8.5
    endloop
  endfacet
  facet normal 0.997859 0.0654022 0
    outer loop
      vertex 1.98289 0.261052 1
      vertex 2 0 8.5
      vertex 2 0 1
    endloop
  endfacet
  facet normal 0.0654022 0.997859 -0
    outer loop
      vertex 0.261052 1.98289 1
      vertex 0 2 8.5
      vertex 0.261052 1.98289 8.5
    endloop
  endfacet
  facet normal 0.0654022 0.997859 0
    outer loop
      vertex 0 2 8.5
      vertex 0.261052 1.98289 1
      vertex 0 2 1
    endloop
  endfacet
  facet normal -0.195098 0.980784 0
    outer loop
      vertex -0.261052 1.98289 1
      vertex -0.517637 1.93185 8.5
      vertex -0.261052 1.98289 8.5
    endloop
  endfacet
  facet normal -0.195098 0.980784 0
    outer loop
      vertex -0.517637 1.93185 8.5
      vertex -0.261052 1.98289 1
      vertex -0.517637 1.93185 1
    endloop
  endfacet
  facet normal -0.946934 -0.321429 0
    outer loop
      vertex -1.84776 -0.765367 1
      vertex -1.93185 -0.517637 8.5
      vertex -1.93185 -0.517637 1
    endloop
  endfacet
  facet normal -0.946934 -0.321429 0
    outer loop
      vertex -1.93185 -0.517637 8.5
      vertex -1.84776 -0.765367 1
      vertex -1.84776 -0.765367 8.5
    endloop
  endfacet
  facet normal 0.555564 -0.831474 0
    outer loop
      vertex 1 -1.73205 1
      vertex 1.21752 -1.58671 8.5
      vertex 1 -1.73205 8.5
    endloop
  endfacet
  facet normal 0.555564 -0.831474 0
    outer loop
      vertex 1.21752 -1.58671 8.5
      vertex 1 -1.73205 1
      vertex 1.21752 -1.58671 1
    endloop
  endfacet
  facet normal -0.89687 0.442294 0
    outer loop
      vertex -1.84776 0.765367 1
      vertex -1.73205 1 8.5
      vertex -1.73205 1 1
    endloop
  endfacet
  facet normal -0.89687 0.442294 0
    outer loop
      vertex -1.73205 1 8.5
      vertex -1.84776 0.765367 1
      vertex -1.84776 0.765367 8.5
    endloop
  endfacet
  facet normal -0.946934 0.321429 0
    outer loop
      vertex -1.93185 0.517637 1
      vertex -1.84776 0.765367 8.5
      vertex -1.84776 0.765367 1
    endloop
  endfacet
  facet normal -0.946934 0.321429 0
    outer loop
      vertex -1.84776 0.765367 8.5
      vertex -1.93185 0.517637 1
      vertex -1.93185 0.517637 8.5
    endloop
  endfacet
  facet normal -0.89687 -0.442294 0
    outer loop
      vertex -1.73205 -1 1
      vertex -1.84776 -0.765367 8.5
      vertex -1.84776 -0.765367 1
    endloop
  endfacet
  facet normal -0.89687 -0.442294 0
    outer loop
      vertex -1.84776 -0.765367 8.5
      vertex -1.73205 -1 1
      vertex -1.73205 -1 8.5
    endloop
  endfacet
  facet normal -0.321429 0.946934 0
    outer loop
      vertex -0.517637 1.93185 1
      vertex -0.765367 1.84776 8.5
      vertex -0.517637 1.93185 8.5
    endloop
  endfacet
  facet normal -0.321429 0.946934 0
    outer loop
      vertex -0.765367 1.84776 8.5
      vertex -0.517637 1.93185 1
      vertex -0.765367 1.84776 1
    endloop
  endfacet
  facet normal 0.997859 -0.0654022 0
    outer loop
      vertex 1.98289 -0.261052 8.5
      vertex 2 0 1
      vertex 2 0 8.5
    endloop
  endfacet
  facet normal 0.997859 -0.0654022 0
    outer loop
      vertex 2 0 1
      vertex 1.98289 -0.261052 8.5
      vertex 1.98289 -0.261052 1
    endloop
  endfacet
  facet normal -0.831474 0.555564 0
    outer loop
      vertex -1.73205 1 1
      vertex -1.58671 1.21752 8.5
      vertex -1.58671 1.21752 1
    endloop
  endfacet
  facet normal -0.831474 0.555564 0
    outer loop
      vertex -1.58671 1.21752 8.5
      vertex -1.73205 1 1
      vertex -1.73205 1 8.5
    endloop
  endfacet
  facet normal -0.980784 0.195098 0
    outer loop
      vertex -1.98289 0.261052 1
      vertex -1.93185 0.517637 8.5
      vertex -1.93185 0.517637 1
    endloop
  endfacet
  facet normal -0.980784 0.195098 0
    outer loop
      vertex -1.93185 0.517637 8.5
      vertex -1.98289 0.261052 1
      vertex -1.98289 0.261052 8.5
    endloop
  endfacet
  facet normal 0.946934 -0.321429 0
    outer loop
      vertex 1.84776 -0.765367 8.5
      vertex 1.93185 -0.517637 1
      vertex 1.93185 -0.517637 8.5
    endloop
  endfacet
  facet normal 0.946934 -0.321429 0
    outer loop
      vertex 1.93185 -0.517637 1
      vertex 1.84776 -0.765367 8.5
      vertex 1.84776 -0.765367 1
    endloop
  endfacet
  facet normal 0.659362 -0.751826 0
    outer loop
      vertex 1.21752 -1.58671 1
      vertex 1.41421 -1.41421 8.5
      vertex 1.21752 -1.58671 8.5
    endloop
  endfacet
  facet normal 0.659362 -0.751826 0
    outer loop
      vertex 1.41421 -1.41421 8.5
      vertex 1.21752 -1.58671 1
      vertex 1.41421 -1.41421 1
    endloop
  endfacet
  facet normal 0.321429 0.946934 -0
    outer loop
      vertex 0.765367 1.84776 1
      vertex 0.517637 1.93185 8.5
      vertex 0.765367 1.84776 8.5
    endloop
  endfacet
  facet normal 0.321429 0.946934 0
    outer loop
      vertex 0.517637 1.93185 8.5
      vertex 0.765367 1.84776 1
      vertex 0.517637 1.93185 1
    endloop
  endfacet
  facet normal -0.751826 -0.659362 0
    outer loop
      vertex -1.41421 -1.41421 1
      vertex -1.58671 -1.21752 8.5
      vertex -1.58671 -1.21752 1
    endloop
  endfacet
  facet normal -0.751826 -0.659362 0
    outer loop
      vertex -1.58671 -1.21752 8.5
      vertex -1.41421 -1.41421 1
      vertex -1.41421 -1.41421 8.5
    endloop
  endfacet
  facet normal -0.659362 0.751826 0
    outer loop
      vertex -1.21752 1.58671 1
      vertex -1.41421 1.41421 8.5
      vertex -1.21752 1.58671 8.5
    endloop
  endfacet
  facet normal -0.659362 0.751826 0
    outer loop
      vertex -1.41421 1.41421 8.5
      vertex -1.21752 1.58671 1
      vertex -1.41421 1.41421 1
    endloop
  endfacet
  facet normal -0.997859 0.0654022 0
    outer loop
      vertex -2 0 1
      vertex -1.98289 0.261052 8.5
      vertex -1.98289 0.261052 1
    endloop
  endfacet
  facet normal -0.997859 0.0654022 0
    outer loop
      vertex -1.98289 0.261052 8.5
      vertex -2 0 1
      vertex -2 0 8.5
    endloop
  endfacet
  facet normal 0.555564 0.831474 -0
    outer loop
      vertex 1.21752 1.58671 1
      vertex 1 1.73205 8.5
      vertex 1.21752 1.58671 8.5
    endloop
  endfacet
  facet normal 0.555564 0.831474 0
    outer loop
      vertex 1 1.73205 8.5
      vertex 1.21752 1.58671 1
      vertex 1 1.73205 1
    endloop
  endfacet
  facet normal 0.831474 -0.555564 0
    outer loop
      vertex 1.58671 -1.21752 8.5
      vertex 1.73205 -1 1
      vertex 1.73205 -1 8.5
    endloop
  endfacet
  facet normal 0.831474 -0.555564 0
    outer loop
      vertex 1.73205 -1 1
      vertex 1.58671 -1.21752 8.5
      vertex 1.58671 -1.21752 1
    endloop
  endfacet
  facet normal 0.831474 0.555564 0
    outer loop
      vertex 1.73205 1 8.5
      vertex 1.58671 1.21752 1
      vertex 1.58671 1.21752 8.5
    endloop
  endfacet
  facet normal 0.831474 0.555564 0
    outer loop
      vertex 1.58671 1.21752 1
      vertex 1.73205 1 8.5
      vertex 1.73205 1 1
    endloop
  endfacet
  facet normal -0.751826 0.659362 0
    outer loop
      vertex -1.58671 1.21752 1
      vertex -1.41421 1.41421 8.5
      vertex -1.41421 1.41421 1
    endloop
  endfacet
  facet normal -0.751826 0.659362 0
    outer loop
      vertex -1.41421 1.41421 8.5
      vertex -1.58671 1.21752 1
      vertex -1.58671 1.21752 8.5
    endloop
  endfacet
  facet normal 0.321429 -0.946934 0
    outer loop
      vertex 0.517637 -1.93185 1
      vertex 0.765367 -1.84776 8.5
      vertex 0.517637 -1.93185 8.5
    endloop
  endfacet
  facet normal 0.321429 -0.946934 0
    outer loop
      vertex 0.765367 -1.84776 8.5
      vertex 0.517637 -1.93185 1
      vertex 0.765367 -1.84776 1
    endloop
  endfacet
  facet normal 0.442294 -0.89687 0
    outer loop
      vertex 0.765367 -1.84776 1
      vertex 1 -1.73205 8.5
      vertex 0.765367 -1.84776 8.5
    endloop
  endfacet
  facet normal 0.442294 -0.89687 0
    outer loop
      vertex 1 -1.73205 8.5
      vertex 0.765367 -1.84776 1
      vertex 1 -1.73205 1
    endloop
  endfacet
  facet normal 0.751826 0.659362 0
    outer loop
      vertex 1.58671 1.21752 8.5
      vertex 1.41421 1.41421 1
      vertex 1.41421 1.41421 8.5
    endloop
  endfacet
  facet normal 0.751826 0.659362 0
    outer loop
      vertex 1.41421 1.41421 1
      vertex 1.58671 1.21752 8.5
      vertex 1.58671 1.21752 1
    endloop
  endfacet
  facet normal 0.0654022 -0.997859 0
    outer loop
      vertex 0 -2 1
      vertex 0.261052 -1.98289 8.5
      vertex 0 -2 8.5
    endloop
  endfacet
  facet normal 0.0654022 -0.997859 0
    outer loop
      vertex 0.261052 -1.98289 8.5
      vertex 0 -2 1
      vertex 0.261052 -1.98289 1
    endloop
  endfacet
  facet normal 0.659362 0.751826 -0
    outer loop
      vertex 1.41421 1.41421 1
      vertex 1.21752 1.58671 8.5
      vertex 1.41421 1.41421 8.5
    endloop
  endfacet
  facet normal 0.659362 0.751826 0
    outer loop
      vertex 1.21752 1.58671 8.5
      vertex 1.41421 1.41421 1
      vertex 1.21752 1.58671 1
    endloop
  endfacet
  facet normal -0.997859 -0.0654022 0
    outer loop
      vertex -1.98289 -0.261052 1
      vertex -2 0 8.5
      vertex -2 0 1
    endloop
  endfacet
  facet normal -0.997859 -0.0654022 0
    outer loop
      vertex -2 0 8.5
      vertex -1.98289 -0.261052 1
      vertex -1.98289 -0.261052 8.5
    endloop
  endfacet
  facet normal -0.659362 -0.751826 0
    outer loop
      vertex -1.41421 -1.41421 1
      vertex -1.21752 -1.58671 8.5
      vertex -1.41421 -1.41421 8.5
    endloop
  endfacet
  facet normal -0.659362 -0.751826 -0
    outer loop
      vertex -1.21752 -1.58671 8.5
      vertex -1.41421 -1.41421 1
      vertex -1.21752 -1.58671 1
    endloop
  endfacet
  facet normal -0.555564 0.831474 0
    outer loop
      vertex -1 1.73205 1
      vertex -1.21752 1.58671 8.5
      vertex -1 1.73205 8.5
    endloop
  endfacet
  facet normal -0.555564 0.831474 0
    outer loop
      vertex -1.21752 1.58671 8.5
      vertex -1 1.73205 1
      vertex -1.21752 1.58671 1
    endloop
  endfacet
  facet normal 0.89687 0.442294 0
    outer loop
      vertex 1.84776 0.765367 8.5
      vertex 1.73205 1 1
      vertex 1.73205 1 8.5
    endloop
  endfacet
  facet normal 0.89687 0.442294 0
    outer loop
      vertex 1.73205 1 1
      vertex 1.84776 0.765367 8.5
      vertex 1.84776 0.765367 1
    endloop
  endfacet
  facet normal -0.0654022 -0.997859 0
    outer loop
      vertex -0.261052 -1.98289 1
      vertex 0 -2 8.5
      vertex -0.261052 -1.98289 8.5
    endloop
  endfacet
  facet normal -0.0654022 -0.997859 -0
    outer loop
      vertex 0 -2 8.5
      vertex -0.261052 -1.98289 1
      vertex 0 -2 1
    endloop
  endfacet
  facet normal 0.195098 -0.980784 0
    outer loop
      vertex 0.261052 -1.98289 1
      vertex 0.517637 -1.93185 8.5
      vertex 0.261052 -1.98289 8.5
    endloop
  endfacet
  facet normal 0.195098 -0.980784 0
    outer loop
      vertex 0.517637 -1.93185 8.5
      vertex 0.261052 -1.98289 1
      vertex 0.517637 -1.93185 1
    endloop
  endfacet
  facet normal 0.442294 0.89687 -0
    outer loop
      vertex 1 1.73205 1
      vertex 0.765367 1.84776 8.5
      vertex 1 1.73205 8.5
    endloop
  endfacet
  facet normal 0.442294 0.89687 0
    outer loop
      vertex 0.765367 1.84776 8.5
      vertex 1 1.73205 1
      vertex 0.765367 1.84776 1
    endloop
  endfacet
  facet normal 0.89687 -0.442294 0
    outer loop
      vertex 1.73205 -1 8.5
      vertex 1.84776 -0.765367 1
      vertex 1.84776 -0.765367 8.5
    endloop
  endfacet
  facet normal 0.89687 -0.442294 0
    outer loop
      vertex 1.84776 -0.765367 1
      vertex 1.73205 -1 8.5
      vertex 1.73205 -1 1
    endloop
  endfacet
  facet normal 0.980784 -0.195098 0
    outer loop
      vertex 1.93185 -0.517637 8.5
      vertex 1.98289 -0.261052 1
      vertex 1.98289 -0.261052 8.5
    endloop
  endfacet
  facet normal 0.980784 -0.195098 0
    outer loop
      vertex 1.98289 -0.261052 1
      vertex 1.93185 -0.517637 8.5
      vertex 1.93185 -0.517637 1
    endloop
  endfacet
  facet normal -0.980784 -0.195098 0
    outer loop
      vertex -1.93185 -0.517637 1
      vertex -1.98289 -0.261052 8.5
      vertex -1.98289 -0.261052 1
    endloop
  endfacet
  facet normal -0.980784 -0.195098 0
    outer loop
      vertex -1.98289 -0.261052 8.5
      vertex -1.93185 -0.517637 1
      vertex -1.93185 -0.517637 8.5
    endloop
  endfacet
  facet normal -0.195098 -0.980784 0
    outer loop
      vertex -0.517637 -1.93185 1
      vertex -0.261052 -1.98289 8.5
      vertex -0.517637 -1.93185 8.5
    endloop
  endfacet
  facet normal -0.195098 -0.980784 -0
    outer loop
      vertex -0.261052 -1.98289 8.5
      vertex -0.517637 -1.93185 1
      vertex -0.261052 -1.98289 1
    endloop
  endfacet
  facet normal 0.195098 0.980784 -0
    outer loop
      vertex 0.517637 1.93185 1
      vertex 0.261052 1.98289 8.5
      vertex 0.517637 1.93185 8.5
    endloop
  endfacet
  facet normal 0.195098 0.980784 0
    outer loop
      vertex 0.261052 1.98289 8.5
      vertex 0.517637 1.93185 1
      vertex 0.261052 1.98289 1
    endloop
  endfacet
  facet normal 0.946934 0.321429 0
    outer loop
      vertex 1.93185 0.517637 8.5
      vertex 1.84776 0.765367 1
      vertex 1.84776 0.765367 8.5
    endloop
  endfacet
  facet normal 0.946934 0.321429 0
    outer loop
      vertex 1.84776 0.765367 1
      vertex 1.93185 0.517637 8.5
      vertex 1.93185 0.517637 1
    endloop
  endfacet
  facet normal 0.751826 -0.659362 0
    outer loop
      vertex 1.41421 -1.41421 8.5
      vertex 1.58671 -1.21752 1
      vertex 1.58671 -1.21752 8.5
    endloop
  endfacet
  facet normal 0.751826 -0.659362 0
    outer loop
      vertex 1.58671 -1.21752 1
      vertex 1.41421 -1.41421 8.5
      vertex 1.41421 -1.41421 1
    endloop
  endfacet
  facet normal -0.831474 -0.555564 0
    outer loop
      vertex -1.58671 -1.21752 1
      vertex -1.73205 -1 8.5
      vertex -1.73205 -1 1
    endloop
  endfacet
  facet normal -0.831474 -0.555564 0
    outer loop
      vertex -1.73205 -1 8.5
      vertex -1.58671 -1.21752 1
      vertex -1.58671 -1.21752 8.5
    endloop
  endfacet
  facet normal -0.0654022 0.997859 0
    outer loop
      vertex 0 2 1
      vertex -0.261052 1.98289 8.5
      vertex 0 2 8.5
    endloop
  endfacet
  facet normal -0.0654022 0.997859 0
    outer loop
      vertex -0.261052 1.98289 8.5
      vertex 0 2 1
      vertex -0.261052 1.98289 1
    endloop
  endfacet
  facet normal -0.321429 -0.946934 0
    outer loop
      vertex -0.765367 -1.84776 1
      vertex -0.517637 -1.93185 8.5
      vertex -0.765367 -1.84776 8.5
    endloop
  endfacet
  facet normal -0.321429 -0.946934 -0
    outer loop
      vertex -0.517637 -1.93185 8.5
      vertex -0.765367 -1.84776 1
      vertex -0.517637 -1.93185 1
    endloop
  endfacet
  facet normal -0.442294 0.89687 0
    outer loop
      vertex -0.765367 1.84776 1
      vertex -1 1.73205 8.5
      vertex -0.765367 1.84776 8.5
    endloop
  endfacet
  facet normal -0.442294 0.89687 0
    outer loop
      vertex -1 1.73205 8.5
      vertex -0.765367 1.84776 1
      vertex -1 1.73205 1
    endloop
  endfacet
  facet normal -0.442294 -0.89687 0
    outer loop
      vertex -1 -1.73205 1
      vertex -0.765367 -1.84776 8.5
      vertex -1 -1.73205 8.5
    endloop
  endfacet
  facet normal -0.442294 -0.89687 -0
    outer loop
      vertex -0.765367 -1.84776 8.5
      vertex -1 -1.73205 1
      vertex -0.765367 -1.84776 1
    endloop
  endfacet
  facet normal -0.555564 -0.831474 0
    outer loop
      vertex -1.21752 -1.58671 1
      vertex -1 -1.73205 8.5
      vertex -1.21752 -1.58671 8.5
    endloop
  endfacet
  facet normal -0.555564 -0.831474 -0
    outer loop
      vertex -1 -1.73205 8.5
      vertex -1.21752 -1.58671 1
      vertex -1 -1.73205 1
    endloop
  endfacet
  facet normal 0 0 1
    outer loop
      vertex 1.98289 0.261052 8.5
      vertex 1.98289 -0.261052 8.5
      vertex 2 0 8.5
    endloop
  endfacet
  facet normal 0 0 1
    outer loop
      vertex 1.93185 0.517637 8.5
      vertex 1.98289 -0.261052 8.5
      vertex 1.98289 0.261052 8.5
    endloop
  endfacet
  facet normal 0 0 1
    outer loop
      vertex 1.93185 0.517637 8.5
      vertex 1.93185 -0.517637 8.5
      vertex 1.98289 -0.261052 8.5
    endloop
  endfacet
  facet normal 0 0 1
    outer loop
      vertex 1.84776 0.765367 8.5
      vertex 1.93185 -0.517637 8.5
      vertex 1.93185 0.517637 8.5
    endloop
  endfacet
  facet normal 0 0 1
    outer loop
      vertex 1.84776 0.765367 8.5
      vertex 1.84776 -0.765367 8.5
      vertex 1.93185 -0.517637 8.5
    endloop
  endfacet
  facet normal 0 0 1
    outer loop
      vertex 1.73205 1 8.5
      vertex 1.84776 -0.765367 8.5
      vertex 1.84776 0.765367 8.5
    endloop
  endfacet
  facet normal 0 0 1
    outer loop
      vertex 1.73205 1 8.5
      vertex 1.73205 -1 8.5
      vertex 1.84776 -0.765367 8.5
    endloop
  endfacet
  facet normal 0 0 1
    outer loop
      vertex 1.58671 1.21752 8.5
      vertex 1.73205 -1 8.5
      vertex 1.73205 1 8.5
    endloop
  endfacet
  facet normal 0 0 1
    outer loop
      vertex 1.58671 1.21752 8.5
      vertex 1.58671 -1.21752 8.5
      vertex 1.73205 -1 8.5
    endloop
  endfacet
  facet normal 0 0 1
    outer loop
      vertex 1.41421 1.41421 8.5
      vertex 1.58671 -1.21752 8.5
      vertex 1.58671 1.21752 8.5
    endloop
  endfacet
  facet normal 0 0 1
    outer loop
      vertex 1.41421 1.41421 8.5
      vertex 1.41421 -1.41421 8.5
      vertex 1.58671 -1.21752 8.5
    endloop
  endfacet
  facet normal 0 0 1
    outer loop
      vertex 1.21752 1.58671 8.5
      vertex 1.41421 -1.41421 8.5
      vertex 1.41421 1.41421 8.5
    endloop
  endfacet
  facet normal 0 0 1
    outer loop
      vertex 1.21752 1.58671 8.5
      vertex 1.21752 -1.58671 8.5
      vertex 1.41421 -1.41421 8.5
    endloop
  endfacet
  facet normal 0 0 1
    outer loop
      vertex 1 1.73205 8.5
      vertex 1.21752 -1.58671 8.5
      vertex 1.21752 1.58671 8.5
    endloop
  endfacet
  facet normal 0 0 1
    outer loop
      vertex 1 1.73205 8.5
      vertex 1 -1.73205 8.5
      vertex 1.21752 -1.58671 8.5
    endloop
  endfacet
  facet normal 0 0 1
    outer loop
      vertex 0.765367 1.84776 8.5
      vertex 1 -1.73205 8.5
      vertex 1 1.73205 8.5
    endloop
  endfacet
  facet normal 0 0 1
    outer loop
      vertex 0.765367 1.84776 8.5
      vertex 0.765367 -1.84776 8.5
      vertex 1 -1.73205 8.5
    endloop
  endfacet
  facet normal 0 0 1
    outer loop
      vertex 0.517637 1.93185 8.5
      vertex 0.765367 -1.84776 8.5
      vertex 0.765367 1.84776 8.5
    endloop
  endfacet
  facet normal 0 0 1
    outer loop
      vertex 0.517637 1.93185 8.5
      vertex 0.517637 -1.93185 8.5
      vertex 0.765367 -1.84776 8.5
    endloop
  endfacet
  facet normal 0 0 1
    outer loop
      vertex 0.261052 1.98289 8.5
      vertex 0.517637 -1.93185 8.5
      vertex 0.517637 1.93185 8.5
    endloop
  endfacet
  facet normal 0 0 1
    outer loop
      vertex 0.261052 1.98289 8.5
      vertex 0.261052 -1.98289 8.5
      vertex 0.517637 -1.93185 8.5
    endloop
  endfacet
  facet normal 0 0 1
    outer loop
      vertex 0 2 8.5
      vertex 0.261052 -1.98289 8.5
      vertex 0.261052 1.98289 8.5
    endloop
  endfacet
  facet normal 0 0 1
    outer loop
      vertex 0 2 8.5
      vertex 0 -2 8.5
      vertex 0.261052 -1.98289 8.5
    endloop
  endfacet
  facet normal -0 0 1
    outer loop
      vertex -0.261052 1.98289 8.5
      vertex 0 -2 8.5
      vertex 0 2 8.5
    endloop
  endfacet
  facet normal 0 0 1
    outer loop
      vertex -0.261052 1.98289 8.5
      vertex -0.261052 -1.98289 8.5
      vertex 0 -2 8.5
    endloop
  endfacet
  facet normal -0 0 1
    outer loop
      vertex -0.517637 1.93185 8.5
      vertex -0.261052 -1.98289 8.5
      vertex -0.261052 1.98289 8.5
    endloop
  endfacet
  facet normal 0 0 1
    outer loop
      vertex -0.517637 1.93185 8.5
      vertex -0.517637 -1.93185 8.5
      vertex -0.261052 -1.98289 8.5
    endloop
  endfacet
  facet normal -0 0 1
    outer loop
      vertex -0.765367 1.84776 8.5
      vertex -0.517637 -1.93185 8.5
      vertex -0.517637 1.93185 8.5
    endloop
  endfacet
  facet normal 0 0 1
    outer loop
      vertex -0.765367 1.84776 8.5
      vertex -0.765367 -1.84776 8.5
      vertex -0.517637 -1.93185 8.5
    endloop
  endfacet
  facet normal -0 0 1
    outer loop
      vertex -1 1.73205 8.5
      vertex -0.765367 -1.84776 8.5
      vertex -0.765367 1.84776 8.5
    endloop
  endfacet
  facet normal 0 0 1
    outer loop
      vertex -1 1.73205 8.5
      vertex -1 -1.73205 8.5
      vertex -0.765367 -1.84776 8.5
    endloop
  endfacet
  facet normal -0 0 1
    outer loop
      vertex -1.21752 1.58671 8.5
      vertex -1 -1.73205 8.5
      vertex -1 1.73205 8.5
    endloop
  endfacet
  facet normal 0 0 1
    outer loop
      vertex -1.21752 1.58671 8.5
      vertex -1.21752 -1.58671 8.5
      vertex -1 -1.73205 8.5
    endloop
  endfacet
  facet normal -0 0 1
    outer loop
      vertex -1.41421 1.41421 8.5
      vertex -1.21752 -1.58671 8.5
      vertex -1.21752 1.58671 8.5
    endloop
  endfacet
  facet normal 0 0 1
    outer loop
      vertex -1.41421 1.41421 8.5
      vertex -1.41421 -1.41421 8.5
      vertex -1.21752 -1.58671 8.5
    endloop
  endfacet
  facet normal -0 0 1
    outer loop
      vertex -1.58671 1.21752 8.5
      vertex -1.41421 -1.41421 8.5
      vertex -1.41421 1.41421 8.5
    endloop
  endfacet
  facet normal 0 0 1
    outer loop
      vertex -1.58671 1.21752 8.5
      vertex -1.58671 -1.21752 8.5
      vertex -1.41421 -1.41421 8.5
    endloop
  endfacet
  facet normal -0 0 1
    outer loop
      vertex -1.73205 1 8.5
      vertex -1.58671 -1.21752 8.5
      vertex -1.58671 1.21752 8.5
    endloop
  endfacet
  facet normal 0 0 1
    outer loop
      vertex -1.73205 1 8.5
      vertex -1.73205 -1 8.5
      vertex -1.58671 -1.21752 8.5
    endloop
  endfacet
  facet normal -0 0 1
    outer loop
      vertex -1.84776 0.765367 8.5
      vertex -1.73205 -1 8.5
      vertex -1.73205 1 8.5
    endloop
  endfacet
  facet normal 0 0 1
    outer loop
      vertex -1.84776 0.765367 8.5
      vertex -1.84776 -0.765367 8.5
      vertex -1.73205 -1 8.5
    endloop
  endfacet
  facet normal -0 0 1
    outer loop
      vertex -1.93185 0.517637 8.5
      vertex -1.84776 -0.765367 8.5
      vertex -1.84776 0.765367 8.5
    endloop
  endfacet
  facet normal 0 0 1
    outer loop
      vertex -1.93185 0.517637 8.5
      vertex -1.93185 -0.517637 8.5
      vertex -1.84776 -0.765367 8.5
    endloop
  endfacet
  facet normal -0 0 1
    outer loop
      vertex -1.98289 0.261052 8.5
      vertex -1.93185 -0.517637 8.5
      vertex -1.93185 0.517637 8.5
    endloop
  endfacet
  facet normal 0 0 1
    outer loop
      vertex -1.98289 0.261052 8.5
      vertex -1.98289 -0.261052 8.5
      vertex -1.93185 -0.517637 8.5
    endloop
  endfacet
  facet normal 0 -0 1
    outer loop
      vertex -1.98289 -0.261052 8.5
      vertex -1.98289 0.261052 8.5
      vertex -2 0 8.5
    endloop
  endfacet
endsolid OpenSCAD_Model
